<mxfile host="app.diagrams.net" modified="2023-04-28T10:04:41.874Z" agent="Mozilla/5.0 (Windows NT 10.0; Win64; x64) AppleWebKit/537.36 (KHTML, like Gecko) Chrome/112.0.0.0 Safari/537.36" etag="w-P0GBluobSgJnY8Uhkb" version="21.2.3" type="github">
  <diagram name="Page-1" id="SHoy8_nxIygTcBHp7UH4">
    <mxGraphModel dx="880" dy="452" grid="1" gridSize="10" guides="1" tooltips="1" connect="1" arrows="1" fold="1" page="1" pageScale="1" pageWidth="827" pageHeight="1169" math="0" shadow="0">
      <root>
        <mxCell id="0" />
        <mxCell id="1" parent="0" />
        <mxCell id="HxIWHDCGIG-U7nqKy6Yv-1" value="" style="rounded=0;whiteSpace=wrap;html=1;" parent="1" vertex="1">
          <mxGeometry x="20" y="30" width="760" height="410" as="geometry" />
        </mxCell>
        <mxCell id="HxIWHDCGIG-U7nqKy6Yv-2" value="navigation bar" style="rounded=1;whiteSpace=wrap;html=1;" parent="1" vertex="1">
          <mxGeometry x="40" y="40" width="70" height="390" as="geometry" />
        </mxCell>
        <mxCell id="HxIWHDCGIG-U7nqKy6Yv-4" value="survey breakdown of revenue generated" style="whiteSpace=wrap;html=1;" parent="1" vertex="1">
          <mxGeometry x="130" y="40" width="380" height="20" as="geometry" />
        </mxCell>
        <mxCell id="HxIWHDCGIG-U7nqKy6Yv-9" value="previous /&lt;br&gt;next" style="text;strokeColor=none;align=center;fillColor=none;html=1;verticalAlign=middle;whiteSpace=wrap;rounded=0;" parent="1" vertex="1">
          <mxGeometry x="45" y="390" width="60" height="30" as="geometry" />
        </mxCell>
        <mxCell id="HxIWHDCGIG-U7nqKy6Yv-17" value="top 3 country by revenue&lt;br&gt;and country" style="rounded=1;whiteSpace=wrap;html=1;" parent="1" vertex="1">
          <mxGeometry x="550" y="60" width="210" height="200" as="geometry" />
        </mxCell>
        <mxCell id="HxIWHDCGIG-U7nqKy6Yv-18" value="yearly average revenue per country and cost per item_type" style="rounded=1;whiteSpace=wrap;html=1;" parent="1" vertex="1">
          <mxGeometry x="130" y="280" width="630" height="140" as="geometry" />
        </mxCell>
        <mxCell id="HxIWHDCGIG-U7nqKy6Yv-21" value="" style="rounded=0;whiteSpace=wrap;html=1;" parent="1" vertex="1">
          <mxGeometry x="20" y="470" width="770" height="580" as="geometry" />
        </mxCell>
        <mxCell id="HxIWHDCGIG-U7nqKy6Yv-23" value="navigation bar" style="rounded=1;whiteSpace=wrap;html=1;" parent="1" vertex="1">
          <mxGeometry x="30" y="480" width="60" height="560" as="geometry" />
        </mxCell>
        <mxCell id="HxIWHDCGIG-U7nqKy6Yv-24" value="&lt;div style=&quot;&quot;&gt;&lt;span style=&quot;background-color: initial;&quot;&gt;&lt;span style=&quot;white-space: pre;&quot;&gt; &lt;/span&gt;&lt;span style=&quot;white-space: pre;&quot;&gt; &lt;/span&gt;units sold by sales_channel and country&lt;/span&gt;&lt;/div&gt;" style="rounded=1;whiteSpace=wrap;html=1;align=left;" parent="1" vertex="1">
          <mxGeometry x="115" y="520" width="365" height="220" as="geometry" />
        </mxCell>
        <mxCell id="HxIWHDCGIG-U7nqKy6Yv-25" value="units sold per item_type by order of priority and sales_channel" style="rounded=1;whiteSpace=wrap;html=1;" parent="1" vertex="1">
          <mxGeometry x="111.5" y="810" width="372" height="190" as="geometry" />
        </mxCell>
        <mxCell id="HxIWHDCGIG-U7nqKy6Yv-40" value="overview" style="rounded=0;whiteSpace=wrap;html=1;" parent="1" vertex="1">
          <mxGeometry x="160" y="480" width="410" height="20" as="geometry" />
        </mxCell>
        <mxCell id="TaAh5s1xqCdSAQQK6Izi-1" value="sum of&lt;br&gt;total revenue" style="rounded=1;whiteSpace=wrap;html=1;arcSize=21;" parent="1" vertex="1">
          <mxGeometry x="130" y="120" width="100" height="90" as="geometry" />
        </mxCell>
        <mxCell id="TaAh5s1xqCdSAQQK6Izi-2" value="sum of&lt;br&gt;total cost" style="rounded=1;whiteSpace=wrap;html=1;" parent="1" vertex="1">
          <mxGeometry x="270.5" y="120" width="99" height="90" as="geometry" />
        </mxCell>
        <mxCell id="TaAh5s1xqCdSAQQK6Izi-3" value="sum of&lt;br&gt;total profits" style="rounded=1;whiteSpace=wrap;html=1;" parent="1" vertex="1">
          <mxGeometry x="401" y="120" width="100" height="90" as="geometry" />
        </mxCell>
        <mxCell id="TaAh5s1xqCdSAQQK6Izi-4" value="regional performance" style="rounded=0;whiteSpace=wrap;html=1;strokeColor=#FFFFFF;" parent="1" vertex="1">
          <mxGeometry x="220" y="80" width="170" height="20" as="geometry" />
        </mxCell>
        <mxCell id="TaAh5s1xqCdSAQQK6Izi-6" value="profit percentage by year" style="ellipse;whiteSpace=wrap;html=1;aspect=fixed;" parent="1" vertex="1">
          <mxGeometry x="560" y="810" width="200" height="200" as="geometry" />
        </mxCell>
        <mxCell id="TaAh5s1xqCdSAQQK6Izi-7" value="Top 10 item_type by profit." style="rounded=1;whiteSpace=wrap;html=1;" parent="1" vertex="1">
          <mxGeometry x="510" y="520" width="260" height="220" as="geometry" />
        </mxCell>
      </root>
    </mxGraphModel>
  </diagram>
</mxfile>
